<svg xmlns="http://www.w3.org/2000/svg" viewBox="0 0 1600 900" width="1600" height="900" role="img">
  <defs>
    <linearGradient id="confirmation-hero-base" x1="0" y1="0" x2="1" y2="1">
      <stop offset="0%" stop-color="#430005" />
      <stop offset="55%" stop-color="#5b0b10" />
      <stop offset="100%" stop-color="#0d0d0d" />
    </linearGradient>
    <radialGradient id="confirmation-hero-bloom-0" cx="50%" cy="50%" r="50%">
      <stop offset="0%" stop-color="#7a1520" stop-opacity="0.68" />
      <stop offset="100%" stop-color="#7a1520" stop-opacity="0" />
    </radialGradient>
    <radialGradient id="confirmation-hero-bloom-1" cx="50%" cy="50%" r="50%">
      <stop offset="0%" stop-color="#b08d34" stop-opacity="0.34" />
      <stop offset="100%" stop-color="#b08d34" stop-opacity="0" />
    </radialGradient>
    <radialGradient id="confirmation-hero-bloom-2" cx="50%" cy="50%" r="50%">
      <stop offset="0%" stop-color="#c0392b" stop-opacity="0.26" />
      <stop offset="100%" stop-color="#c0392b" stop-opacity="0" />
    </radialGradient>
    <filter id="confirmation-hero-soft" x="-25%" y="-25%" width="150%" height="150%">
      <feGaussianBlur stdDeviation="42" />
    </filter>
    <filter id="confirmation-hero-grain">
      <feTurbulence type="fractalNoise" baseFrequency="0.85" numOctaves="3" seed="7" />
      <feColorMatrix type="saturate" values="0" />
    </filter>
  </defs>

  <rect width="1600" height="900" fill="url(#confirmation-hero-base)" />

  <g filter="url(#confirmation-hero-soft)">
    <ellipse cx="800" cy="380" rx="620" ry="440" fill="url(#confirmation-hero-bloom-0)" />
    <ellipse cx="400" cy="720" rx="400" ry="300" fill="url(#confirmation-hero-bloom-1)" />
    <ellipse cx="1220" cy="200" rx="340" ry="300" fill="url(#confirmation-hero-bloom-2)" />
  </g>

  <g opacity="0.16" fill="none" stroke="#b08d34" stroke-width="2">
    
    <g transform="translate(700 340) scale(1.35)">
      <path d="M-34 0h68l-8 62a26 26 0 0 1-52 0Z" />
      <path d="M0 88v70" />
      <path d="M-26 158h52" />
    </g>
    <g transform="translate(900 340) scale(1.35)">
      <path d="M-34 0h68l-8 62a26 26 0 0 1-52 0Z" />
      <path d="M0 88v70" />
      <path d="M-26 158h52" />
    </g>
  </g>

  <rect width="1600" height="900" filter="url(#confirmation-hero-grain)" opacity="0.05" />
</svg>